<svg xmlns="http://www.w3.org/2000/svg" viewBox="0 0 24 24">
  <path
    fill="black"
    d="M12 .6a11.5 11.5 0 0 0-3.6 22.4c.6.1.8-.3.8-.6v-2.2c-3.2.7-3.9-1.3-3.9-1.3-.5-1.3-1.2-1.7-1.2-1.7-1-.7.1-.7.1-.7 1.1.1 1.7 1.2 1.7 1.2 1 1.7 2.7 1.2 3.3.9.1-.7.4-1.2.7-1.5-2.6-.3-5.3-1.3-5.3-5.9 0-1.3.5-2.4 1.2-3.2-.1-.3-.5-1.5.1-3.1 0 0 1-.3 3.2 1.2a11 11 0 0 1 5.8 0C16 3.3 17 3.6 17 3.6c.6 1.6.2 2.8.1 3.1.8.8 1.2 1.9 1.2 3.2 0 4.6-2.7 5.6-5.3 5.9.4.4.8 1.1.8 2.1v3.1c0 .3.2.7.8.6A11.5 11.5 0 0 0 12 .6Z"
  />
</svg>
